<svg width="377" height="22" viewBox="0 0 377 22" fill="none" xmlns="http://www.w3.org/2000/svg">
<g clip-path="url(#clip0_236_1622)">
<path fill-rule="evenodd" clip-rule="evenodd" d="M354.589 5.15991H369.411C370.659 5.15991 371.111 5.28987 371.568 5.5339C372.024 5.77793 372.382 6.13603 372.626 6.59233C372.87 7.04862 373 7.50122 373 8.74935V13.0705C373 14.3186 372.87 14.7712 372.626 15.2275C372.382 15.6838 372.024 16.0419 371.568 16.2859C371.111 16.53 370.659 16.6599 369.411 16.6599H354.589C353.341 16.6599 352.889 16.53 352.432 16.2859C351.976 16.0419 351.618 15.6838 351.374 15.2275C351.13 14.7712 351 14.3186 351 13.0705V8.74935C351 7.50122 351.13 7.04862 351.374 6.59233C351.618 6.13603 351.976 5.77793 352.432 5.5339C352.889 5.28987 353.341 5.15991 354.589 5.15991ZM354.589 6.15991C353.602 6.15991 353.258 6.22645 352.904 6.41571C352.622 6.56654 352.407 6.7819 352.256 7.06393C352.067 7.41782 352 7.76237 352 8.74935V13.0705C352 14.0575 352.067 14.402 352.256 14.7559C352.407 15.0379 352.622 15.2533 352.904 15.4041C353.258 15.5934 353.602 15.6599 354.589 15.6599H369.411C370.398 15.6599 370.742 15.5934 371.096 15.4041C371.378 15.2533 371.593 15.0379 371.744 14.7559C371.933 14.402 372 14.0575 372 13.0705V8.74935C372 7.76237 371.933 7.41782 371.744 7.06393C371.593 6.7819 371.378 6.56654 371.096 6.41571C370.742 6.22645 370.398 6.15991 369.411 6.15991H354.589ZM375.5 10.8499C375.5 12.0865 374 12.8499 374 12.8499V8.84991C374 8.84991 375.5 9.61334 375.5 10.8499Z" fill="black" fill-opacity="0.36"/>
<rect x="353" y="7.07654" width="18" height="7.66667" rx="1.6" fill="black"/>
<path fill-rule="evenodd" clip-rule="evenodd" d="M322.623 6.56587C322.6 6.68179 322.6 6.82118 322.6 7.09997V14.8C322.6 15.0788 322.6 15.2182 322.623 15.3341C322.718 15.8101 323.09 16.1822 323.566 16.2769C323.682 16.3 323.821 16.3 324.1 16.3C324.379 16.3 324.518 16.3 324.634 16.2769C325.11 16.1822 325.482 15.8101 325.577 15.3341C325.6 15.2182 325.6 15.0788 325.6 14.8V7.09998C325.6 6.82118 325.6 6.68179 325.577 6.56587C325.482 6.08984 325.11 5.71772 324.634 5.62303C324.518 5.59998 324.379 5.59998 324.1 5.59998C323.821 5.59998 323.682 5.59998 323.566 5.62303C323.09 5.71772 322.718 6.08984 322.623 6.56587ZM317.9 9.49998C317.9 9.22118 317.9 9.08179 317.923 8.96587C318.018 8.48984 318.39 8.11772 318.866 8.02303C318.982 7.99998 319.121 7.99998 319.4 7.99998C319.679 7.99998 319.818 7.99998 319.934 8.02303C320.41 8.11772 320.782 8.48984 320.877 8.96587C320.9 9.08179 320.9 9.22118 320.9 9.49998V14.8C320.9 15.0788 320.9 15.2182 320.877 15.3341C320.782 15.8101 320.41 16.1822 319.934 16.2769C319.818 16.3 319.679 16.3 319.4 16.3C319.121 16.3 318.982 16.3 318.866 16.2769C318.39 16.1822 318.018 15.8101 317.923 15.3341C317.9 15.2182 317.9 15.0788 317.9 14.8V9.49998ZM313.323 11.2659C313.3 11.3818 313.3 11.5212 313.3 11.8V14.8C313.3 15.0788 313.3 15.2182 313.323 15.3341C313.418 15.8101 313.79 16.1822 314.266 16.2769C314.382 16.3 314.521 16.3 314.8 16.3C315.079 16.3 315.218 16.3 315.334 16.2769C315.81 16.1822 316.182 15.8101 316.277 15.3341C316.3 15.2182 316.3 15.0788 316.3 14.8V11.8C316.3 11.5212 316.3 11.3818 316.277 11.2659C316.182 10.7898 315.81 10.4177 315.334 10.323C315.218 10.3 315.079 10.3 314.8 10.3C314.521 10.3 314.382 10.3 314.266 10.323C313.79 10.4177 313.418 10.7898 313.323 11.2659ZM308.523 13.2659C308.5 13.3818 308.5 13.5212 308.5 13.8V14.8C308.5 15.0788 308.5 15.2182 308.523 15.3341C308.618 15.8101 308.99 16.1822 309.466 16.2769C309.582 16.3 309.721 16.3 310 16.3C310.279 16.3 310.418 16.3 310.534 16.2769C311.01 16.1822 311.382 15.8101 311.477 15.3341C311.5 15.2182 311.5 15.0788 311.5 14.8V13.8C311.5 13.5212 311.5 13.3818 311.477 13.2659C311.382 12.7898 311.01 12.4177 310.534 12.323C310.418 12.3 310.279 12.3 310 12.3C309.721 12.3 309.582 12.3 309.466 12.323C308.99 12.4177 308.618 12.7898 308.523 13.2659Z" fill="black"/>
<path fill-rule="evenodd" clip-rule="evenodd" d="M338.3 7.69638C340.535 7.69648 342.684 8.55504 344.303 10.0946C344.425 10.2135 344.62 10.212 344.74 10.0912L345.906 8.91482C345.967 8.85359 346.001 8.77065 346 8.68435C345.999 8.59806 345.965 8.51552 345.903 8.45501C341.653 4.3817 334.947 4.3817 330.697 8.45501C330.636 8.51547 330.601 8.59799 330.6 8.68428C330.599 8.77058 330.633 8.85354 330.694 8.91482L331.86 10.0912C331.98 10.2121 332.175 10.2136 332.297 10.0946C333.917 8.55493 336.066 7.69638 338.3 7.69638ZM338.3 11.5238C339.528 11.5237 340.712 11.98 341.622 12.804C341.745 12.921 341.939 12.9185 342.059 12.7983L343.223 11.6219C343.285 11.5602 343.319 11.4765 343.318 11.3895C343.317 11.3025 343.281 11.2195 343.219 11.1591C340.447 8.58134 336.156 8.58134 333.385 11.1591C333.322 11.2195 333.286 11.3026 333.286 11.3896C333.285 11.4766 333.319 11.5603 333.38 11.6219L334.544 12.7983C334.664 12.9185 334.858 12.921 334.981 12.804C335.891 11.9806 337.074 11.5243 338.3 11.5238ZM340.538 14.3314C340.6 14.2703 340.635 14.1862 340.633 14.0989C340.631 14.0117 340.593 13.9291 340.529 13.8706C339.242 12.7827 337.359 12.7827 336.072 13.8706C336.008 13.929 335.97 14.0116 335.968 14.0989C335.966 14.1861 336 14.2702 336.063 14.3314L338.077 16.3639C338.136 16.4236 338.216 16.4572 338.3 16.4572C338.384 16.4572 338.465 16.4236 338.524 16.3639L340.538 14.3314Z" fill="black"/>
</g>
<path d="M34.356 5.16748C32.0635 5.16748 30.4302 6.73486 30.4302 8.88086V8.89551C30.4302 10.9023 31.8511 12.3818 33.8799 12.3818C35.3301 12.3818 36.2529 11.6421 36.6411 10.8071H36.7876C36.7876 10.8877 36.7803 10.9683 36.7803 11.0488C36.6997 13.0703 35.9893 14.7109 34.312 14.7109C33.3818 14.7109 32.73 14.2275 32.4517 13.4878L32.4297 13.4146H30.5693L30.584 13.4951C30.9209 15.1138 32.3711 16.2637 34.312 16.2637C36.9707 16.2637 38.5747 14.1543 38.5747 10.5947V10.5801C38.5747 6.77148 36.6118 5.16748 34.356 5.16748ZM34.3486 10.9316C33.1475 10.9316 32.2759 10.0527 32.2759 8.82959V8.81494C32.2759 7.63574 33.2061 6.70557 34.3706 6.70557C35.5425 6.70557 36.458 7.65039 36.458 8.85889V8.87354C36.458 10.0674 35.5425 10.9316 34.3486 10.9316ZM41.7349 9.15186C42.4087 9.15186 42.8995 8.63916 42.8995 7.99463C42.8995 7.34277 42.4087 6.8374 41.7349 6.8374C41.0684 6.8374 40.5704 7.34277 40.5704 7.99463C40.5704 8.63916 41.0684 9.15186 41.7349 9.15186ZM41.7349 14.5864C42.4087 14.5864 42.8995 14.0811 42.8995 13.4292C42.8995 12.7773 42.4087 12.272 41.7349 12.272C41.0684 12.272 40.5704 12.7773 40.5704 13.4292C40.5704 14.0811 41.0684 14.5864 41.7349 14.5864ZM50.0221 16H51.8311V13.9712H53.252V12.4111H51.8311V5.43115H49.1578C47.7222 7.61377 46.2208 10.0454 44.8512 12.4258V13.9712H50.0221V16ZM46.609 12.4551V12.3452C47.6344 10.5508 48.8575 8.59521 49.9415 6.93994H50.0513V12.4551H46.609ZM57.4669 16H59.3566V5.43115H57.4742L54.713 7.37207V9.15186L57.3424 7.2915H57.4669V16Z" fill="black"/>
<defs>
<clipPath id="clip0_236_1622">
<rect width="68" height="13" fill="white" transform="translate(308.5 4.59998)"/>
</clipPath>
</defs>
</svg>
